<?xml version="1.0" standalone="no"?>
<!DOCTYPE svg PUBLIC "-//W3C//DTD SVG 20010904//EN"
 "http://www.w3.org/TR/2001/REC-SVG-20010904/DTD/svg10.dtd">
<svg version="1.0" xmlns="http://www.w3.org/2000/svg"
 width="300.000000pt" height="400.000000pt" viewBox="0 0 300.000000 400.000000"
 preserveAspectRatio="xMidYMid meet">

<g transform="translate(0.000000,400.000000) scale(0.100000,-0.100000)"
fill="#000000" stroke="none">
<path d="M23 3974 l-26 -26 6 -226 c4 -124 7 -319 7 -434 0 -248 0 -248 99
-248 49 0 65 -4 90 -26 l31 -26 0 -988 0 -988 -31 -26 c-25 -22 -41 -26 -90
-26 -99 0 -99 0 -99 -252 0 -117 -3 -313 -7 -434 l-6 -222 26 -26 26 -26 1143
0 c1069 0 1146 1 1175 18 44 23 593 608 609 649 12 27 14 263 14 1334 0 1150
-2 1305 -15 1333 -9 18 -68 89 -132 157 -293 312 -458 481 -484 494 -24 13
-190 15 -1169 15 l-1141 0 -26 -26z m2361 -174 c40 -42 64 -75 60 -81 -4 -7
-3 -9 3 -6 15 9 67 -49 60 -67 -4 -9 -2 -16 3 -16 6 0 10 5 10 12 0 7 16 -3
35 -22 19 -19 35 -40 35 -48 0 -7 4 -11 9 -8 13 8 54 -41 46 -55 -5 -8 -4 -10
4 -5 13 8 128 -110 123 -126 -1 -5 2 -7 7 -4 5 3 27 -14 49 -38 37 -40 40 -48
32 -75 -5 -17 -5 -33 -1 -35 6 -4 6 -51 1 -66 -1 -3 -1 -13 -1 -23 1 -9 -5
-24 -13 -33 -9 -8 -16 -21 -16 -27 0 -7 7 -4 14 6 7 9 15 17 17 17 8 0 -6
-125 -15 -139 -6 -10 -5 -12 2 -7 8 5 12 0 12 -13 0 -11 -4 -23 -10 -26 -5 -3
-10 -11 -10 -16 0 -6 5 -7 10 -4 16 10 11 -17 -7 -39 -17 -20 -17 -20 0 -7 15
12 17 11 17 -6 0 -10 -5 -24 -12 -31 -8 -8 -8 -12 -1 -12 12 0 11 -58 -1 -78
-4 -7 -1 -12 9 -12 10 0 13 -5 9 -12 -4 -6 -6 -28 -6 -48 1 -23 -4 -43 -13
-50 -8 -7 -15 -18 -15 -24 0 -6 7 -2 15 8 18 24 29 15 19 -16 -4 -13 -7 -26
-6 -30 1 -5 -3 -8 -9 -8 -8 0 -8 -4 1 -14 6 -8 11 -30 10 -48 -1 -18 -1 -37 0
-43 1 -5 1 -14 0 -20 -7 -26 -5 -75 3 -75 4 0 5 -6 0 -12 -9 -15 -11 -118 -2
-118 10 0 -3 -64 -17 -85 -8 -11 -14 -24 -14 -30 1 -5 7 1 15 15 8 14 15 21
16 15 4 -29 -4 -121 -12 -136 -12 -23 -11 -38 1 -19 8 12 10 11 10 -7 0 -12
-5 -25 -11 -29 -8 -4 -8 -9 -1 -13 12 -7 22 -110 11 -117 -4 -2 -6 -15 -4 -29
1 -14 -4 -30 -11 -36 -17 -14 -18 -29 -3 -29 5 0 7 5 4 10 -3 6 -2 10 4 10 5
0 9 -21 9 -47 0 -35 -5 -54 -20 -70 -12 -13 -19 -26 -15 -29 4 -4 15 4 26 17
14 17 20 19 21 9 0 -8 -4 -22 -9 -29 -6 -9 -6 -22 0 -33 6 -12 6 -18 0 -18 -6
0 -8 -7 -5 -15 3 -8 1 -28 -4 -44 -9 -24 -8 -29 3 -25 10 4 12 0 8 -15 -3 -12
-13 -21 -22 -21 -9 0 -22 -4 -30 -9 -10 -6 -2 -8 22 -6 34 3 36 2 26 -17 -8
-15 -8 -22 1 -28 8 -5 8 -10 2 -14 -6 -3 -8 -29 -5 -58 8 -97 3 -129 -24 -164
-14 -19 -21 -34 -16 -34 5 0 16 11 23 25 7 14 16 25 20 25 7 0 -4 -107 -14
-135 -6 -16 -6 -17 3 -5 9 12 11 10 11 -11 0 -14 -5 -30 -12 -37 -9 -9 -9 -12
0 -12 8 0 11 -25 8 -87 -2 -49 -5 -90 -6 -93 -1 -3 -2 -9 -1 -13 1 -5 -3 -6
-9 -2 -13 8 -38 -16 -33 -31 4 -12 -61 -74 -77 -74 -5 0 -12 -11 -16 -25 -7
-30 -61 -78 -76 -69 -7 4 -8 2 -4 -5 7 -11 -15 -41 -32 -41 -5 0 -20 -14 -33
-32 -76 -101 -99 -122 -112 -105 -6 8 -7 6 -4 -4 3 -10 -7 -31 -24 -50 -17
-19 -29 -27 -29 -18 -1 9 -5 7 -12 -6 -6 -11 -17 -24 -25 -28 -7 -4 -13 -12
-13 -17 0 -5 -11 -20 -25 -34 -24 -24 -30 -25 -148 -25 -67 0 -131 0 -142 -1
-140 -5 -285 -3 -285 4 0 5 -7 3 -15 -4 -8 -6 -20 -8 -26 -4 -7 4 -39 6 -72 5
-41 -2 -63 2 -68 11 -7 10 -9 10 -9 -2 0 -9 -10 -15 -25 -15 -14 0 -25 4 -25
8 0 5 -5 5 -12 1 -6 -4 -24 -8 -38 -8 -20 -1 -26 3 -22 14 5 13 3 13 -11 1
-10 -8 -20 -11 -24 -8 -3 4 -11 3 -17 -2 -6 -5 -29 -6 -51 -2 -22 4 -53 4 -70
1 -16 -3 -56 -3 -88 0 -32 3 -60 4 -62 2 -6 -7 -95 -8 -95 -2 0 3 5 11 12 18
9 9 9 12 0 12 -6 0 -15 -7 -19 -15 -8 -14 -26 -17 -113 -15 -25 0 -89 -1 -143
-3 -54 -2 -101 1 -103 5 -3 5 -13 7 -22 4 -29 -9 -167 -11 -179 -3 -8 5 -13 4
-13 -2 0 -6 -5 -11 -11 -11 -6 0 -9 7 -5 15 4 12 0 12 -21 -2 -26 -17 -27 -17
-20 0 3 9 2 17 -4 17 -5 0 -12 -6 -15 -13 -3 -10 -20 -12 -57 -9 -60 5 -68 5
-120 1 -21 -1 -40 -6 -43 -11 -20 -32 -24 23 -24 347 l0 355 109 0 c98 0 109
2 114 19 2 10 5 525 4 1144 0 619 3 1130 7 1135 10 17 -32 34 -70 30 -30 -4
-33 -2 -29 17 6 19 6 19 -9 1 -11 -14 -23 -17 -44 -13 -16 3 -34 1 -41 -6 -6
-6 -11 -7 -11 -3 0 5 -7 3 -15 -4 -13 -11 -15 28 -15 344 l0 356 1098 0 1098
0 68 -70z"/>
<path d="M320 3819 c0 -5 5 -7 10 -4 6 3 10 8 10 11 0 2 -4 4 -10 4 -5 0 -10
-5 -10 -11z"/>
<path d="M410 3815 c0 -8 2 -15 4 -15 2 0 6 7 10 15 3 8 1 15 -4 15 -6 0 -10
-7 -10 -15z"/>
<path d="M1057 3811 c-4 -17 -3 -21 5 -13 5 5 8 16 6 23 -3 8 -7 3 -11 -10z"/>
<path d="M1120 3819 c0 -5 5 -7 10 -4 6 3 10 8 10 11 0 2 -4 4 -10 4 -5 0 -10
-5 -10 -11z"/>
<path d="M1470 3819 c0 -5 5 -7 10 -4 6 3 10 8 10 11 0 2 -4 4 -10 4 -5 0 -10
-5 -10 -11z"/>
<path d="M1957 3823 c-4 -3 -7 -11 -7 -17 0 -6 5 -5 12 2 6 6 9 14 7 17 -3 3
-9 2 -12 -2z"/>
<path d="M1887 3795 c-4 -8 -2 -17 3 -20 6 -4 10 3 10 14 0 25 -6 27 -13 6z"/>
<path d="M2010 3800 c0 -5 5 -10 11 -10 5 0 7 5 4 10 -3 6 -8 10 -11 10 -2 0
-4 -4 -4 -10z"/>
<path d="M1120 3790 c0 -5 5 -10 10 -10 6 0 10 5 10 10 0 6 -4 10 -10 10 -5 0
-10 -4 -10 -10z"/>
<path d="M1266 3783 c-6 -14 -5 -15 5 -6 7 7 10 15 7 18 -3 3 -9 -2 -12 -12z"/>
<path d="M1761 3779 c-19 -18 -25 -19 -32 -8 -6 10 -9 10 -9 2 0 -16 -122 -16
-132 1 -6 8 -8 7 -8 -2 0 -10 -27 -12 -110 -11 -94 1 -109 3 -99 15 10 12 9
13 -5 8 -9 -3 -16 -10 -16 -15 0 -5 -9 -9 -20 -9 -11 0 -20 5 -20 11 0 8 -4 8
-13 1 -17 -14 -220 -12 -229 2 -6 8 -8 8 -8 0 0 -8 -37 -12 -116 -13 -89 -1
-113 2 -108 12 5 9 4 9 -7 0 -7 -8 -39 -13 -72 -13 -44 0 -56 3 -51 13 6 10 4
10 -7 0 -19 -18 -29 -16 -22 5 6 16 6 16 -11 -1 -16 -15 -37 -17 -184 -16
-112 1 -169 5 -174 13 -6 8 -10 8 -15 0 -15 -20 -42 -24 -46 -6 -4 13 -5 13
-6 -3 0 -11 -8 -31 -17 -43 -8 -12 -10 -22 -5 -22 16 0 14 -113 -2 -129 -9
-11 -9 -13 1 -7 9 6 12 -18 12 -103 0 -82 -3 -111 -12 -111 -10 0 -9 -3 1 -9
8 -6 12 -20 9 -39 -2 -17 -2 -30 1 -29 3 0 16 -3 29 -7 17 -6 21 -13 17 -29
-6 -20 -5 -21 8 -4 17 21 31 22 23 2 -7 -18 10 -20 21 -2 10 15 135 17 129 2
-1 -5 -11 -9 -21 -7 -10 2 -14 -1 -10 -7 3 -6 12 -11 20 -11 18 0 15 -91 -4
-114 -12 -15 -12 -17 0 -14 18 4 16 -71 -3 -84 -10 -8 -9 -9 3 -5 14 5 16 -30
15 -341 0 -235 -3 -349 -10 -354 -8 -5 -7 -8 1 -8 13 0 13 -166 0 -187 -4 -6
-3 -14 2 -18 14 -8 10 -47 -8 -69 -15 -18 -15 -19 0 -14 14 6 16 -15 15 -200
-1 -114 -5 -213 -10 -221 -6 -9 -5 -12 2 -7 13 8 11 -312 -2 -333 -6 -10 -5
-12 2 -7 9 5 11 -10 9 -54 -2 -40 -8 -65 -18 -71 -11 -7 -11 -9 4 -9 24 0 22
-45 -4 -71 -19 -19 -20 -21 -2 -15 18 6 19 -1 20 -134 l0 -140 -102 0 c-75 0
-106 -4 -114 -14 -8 -9 -12 -69 -12 -177 0 -114 -4 -166 -12 -171 -9 -6 -9 -8
1 -8 8 0 12 -18 12 -54 0 -30 5 -58 10 -61 6 -4 8 -16 4 -28 -5 -18 -4 -20 7
-10 14 14 33 18 26 5 -3 -4 11 -7 30 -8 19 0 39 -7 43 -15 8 -11 12 -11 23 5
11 15 22 18 50 13 23 -3 37 -1 40 6 3 9 8 9 18 -1 12 -11 12 -14 -1 -22 -9 -6
-10 -10 -3 -10 6 0 15 5 18 10 11 18 38 12 31 -7 -6 -17 -5 -17 8 0 8 10 20
15 30 11 9 -3 22 -1 30 5 19 16 66 10 66 -8 0 -11 3 -11 13 3 11 15 17 16 35
7 12 -7 23 -7 27 -2 3 5 29 9 58 8 28 -1 57 2 64 6 17 10 45 -3 39 -19 -4 -11
1 -10 20 2 29 19 47 10 19 -9 -14 -11 -15 -14 -2 -14 8 0 21 12 28 26 10 21
13 23 16 9 4 -14 8 -16 24 -8 10 6 19 7 19 3 0 -4 5 -1 10 7 5 8 10 10 10 4 0
-6 13 -9 32 -6 31 5 32 4 18 -14 -14 -18 -14 -18 3 -5 9 7 38 15 63 18 41 3
46 1 40 -14 -5 -16 -4 -16 6 -3 10 12 35 15 113 15 56 0 103 -4 107 -10 5 -7
8 -6 8 1 0 6 16 10 38 9 20 -1 45 2 55 7 10 5 21 7 24 4 8 -8 -23 -46 -32 -38
-5 4 -5 1 -1 -6 6 -11 14 -8 35 12 32 31 45 33 36 6 -5 -14 -2 -20 10 -20 9 0
13 4 10 10 -3 5 -1 18 4 27 10 17 10 17 11 1 0 -10 5 -18 10 -18 6 0 10 5 10
11 0 8 16 9 49 6 29 -3 53 -1 60 6 7 7 12 6 17 -7 4 -11 10 -13 18 -7 6 5 32
9 59 9 47 -1 47 -1 30 -22 -18 -21 -18 -21 4 -3 12 11 27 16 34 11 7 -4 10 -3
6 3 -4 6 4 13 18 15 32 7 39 -1 17 -19 -12 -10 -8 -10 15 2 42 20 46 19 33 -7
l-11 -23 19 22 c17 20 21 21 26 6 6 -15 8 -14 19 2 13 16 14 16 30 0 15 -14
17 -15 17 -1 0 9 5 16 11 16 5 0 8 -4 4 -9 -3 -5 -1 -12 5 -16 5 -3 10 1 10 9
0 9 4 16 10 16 5 0 6 -8 3 -18 -6 -15 -5 -15 10 -3 9 7 39 15 66 16 27 1 54 6
60 9 7 5 9 1 5 -9 -5 -11 -2 -14 10 -9 9 3 19 17 22 30 3 13 10 21 15 18 5 -3
9 3 9 13 0 15 2 16 10 3 8 -13 10 -12 10 3 0 9 7 17 15 17 8 0 15 5 15 11 0 5
-6 7 -12 4 -7 -4 -4 1 7 10 12 9 21 11 23 5 7 -21 17 -9 19 22 0 22 9 38 29
52 16 12 36 29 44 38 34 37 45 53 52 67 5 13 7 13 7 -2 1 -10 5 -16 11 -12 5
3 7 12 3 20 -3 10 1 15 12 15 9 0 14 4 11 9 -3 5 1 14 9 21 13 11 15 10 10 -6
-4 -10 1 -7 10 9 8 15 23 27 33 27 14 0 14 2 3 9 -10 7 0 22 44 65 32 31 65
56 74 56 14 0 14 2 1 10 -8 5 -10 10 -4 10 6 0 11 6 11 13 0 6 4 21 9 31 5 13
4 17 -4 12 -7 -4 -6 8 3 35 11 31 12 40 2 36 -8 -3 -12 10 -12 44 0 27 4 49 8
49 11 0 5 53 -7 62 -6 4 -4 13 3 22 11 14 11 16 -4 16 -13 0 -15 4 -8 13 16
19 24 65 13 72 -5 3 -10 12 -10 18 0 8 3 8 9 -1 6 -11 10 -10 15 4 4 10 1 21
-6 25 -11 7 -10 13 0 30 12 19 12 21 -2 16 -23 -9 -21 30 2 51 9 10 13 14 8
10 -16 -12 -26 -9 -26 7 0 8 5 15 11 15 8 0 8 5 -1 15 -10 12 -9 15 6 15 16 0
16 2 4 9 -8 6 -18 7 -23 4 -5 -3 -5 3 1 13 14 28 22 94 12 94 -6 0 -6 9 -1 23
5 12 8 45 7 72 -1 28 2 56 7 63 6 8 5 12 -3 12 -7 0 -10 7 -6 15 3 8 1 15 -5
15 -6 0 -8 3 -6 8 11 16 17 183 7 177 -7 -4 -7 2 0 19 6 16 6 27 0 31 -10 6
-8 40 3 51 4 4 7 16 7 26 0 10 5 18 10 18 6 0 10 4 10 10 0 6 -9 6 -26 -1 -26
-9 -27 -9 -10 15 8 14 12 28 7 31 -6 3 -6 18 0 38 6 21 6 33 -1 35 -14 5 -12
42 4 74 12 23 12 26 0 21 -22 -8 -17 30 6 45 11 7 20 18 20 24 0 9 -3 9 -12 0
-16 -16 -28 -15 -28 3 0 8 4 15 8 15 4 0 8 9 8 20 0 11 -3 20 -6 20 -3 0 -4
33 -4 73 1 39 3 72 5 72 1 0 3 23 4 52 1 36 -1 50 -9 46 -7 -4 -7 -2 1 7 7 8
8 22 3 40 -5 16 -6 31 -3 33 7 8 12 97 4 97 -3 0 -6 11 -6 25 0 14 3 25 8 25
4 0 7 7 7 15 0 8 -3 15 -7 15 -11 0 -9 82 1 99 5 7 3 23 -4 37 -11 19 -11 26
0 39 9 11 9 15 1 15 -7 0 -9 5 -5 12 12 19 13 68 1 68 -6 0 -2 6 9 14 15 12
17 17 7 27 -15 15 -17 43 -3 34 5 -3 7 0 4 9 -3 8 -12 12 -19 10 -10 -4 -13 3
-10 28 3 18 1 27 -3 21 -6 -9 -19 -2 -46 26 -21 22 -35 44 -32 50 4 6 1 9 -6
6 -11 -4 -58 35 -58 48 0 2 -45 49 -100 105 -59 60 -98 107 -94 114 4 6 3 8
-4 4 -6 -3 -32 17 -59 45 -26 29 -54 58 -60 65 -7 7 -11 19 -8 26 6 14 5 15
-83 19 -36 2 -49 6 -42 13 5 5 10 15 10 20 0 6 -6 1 -14 -10 -14 -20 -25 -21
-217 -22 -202 -2 -202 -2 -184 18 24 26 15 26 -14 -1z m474 -58 c-11 -5 -445
-8 -965 -7 -520 1 -959 -2 -977 -5 -22 -5 -33 -3 -37 7 -5 12 148 14 997 13
551 0 993 -4 982 -8z m-905 -488 c0 -15 2 -14 15 3 9 12 14 14 15 5 0 -9 7
-11 23 -6 23 7 28 7 62 5 11 -1 35 1 53 5 25 5 32 3 32 -9 0 -8 5 -18 10 -21
6 -4 9 -1 8 6 -2 6 9 15 25 20 17 4 27 3 27 -3 0 -6 6 -5 15 2 8 7 15 8 15 2
0 -5 13 -7 33 -3 23 5 36 3 45 -8 8 -9 11 -11 8 -5 -3 7 1 14 9 18 8 3 15 0
15 -6 0 -9 3 -9 12 0 7 7 21 12 31 12 16 0 17 -3 7 -15 -8 -9 -9 -15 -2 -15 6
0 13 4 16 9 8 12 55 20 58 9 2 -5 15 -5 31 1 30 12 35 1 12 -23 -9 -8 -11 -17
-6 -21 6 -3 15 3 21 15 10 19 11 19 41 -10 17 -16 28 -34 24 -39 -3 -6 -1 -11
6 -11 22 0 68 -51 62 -69 -4 -12 -3 -13 5 -3 7 10 15 6 35 -18 25 -30 26 -34
25 -163 -1 -72 -5 -140 -11 -151 -6 -12 -6 -16 1 -12 6 4 10 -24 10 -76 0 -52
-4 -86 -11 -90 -9 -6 -9 -8 0 -8 8 0 11 -56 12 -206 0 -201 0 -207 -22 -225
-12 -10 -17 -18 -11 -19 5 0 15 5 22 12 9 9 12 -30 11 -173 -1 -124 -5 -186
-13 -191 -8 -6 -7 -8 2 -8 6 0 12 -7 12 -15 0 -8 -6 -15 -12 -15 -10 0 -10 -2
-2 -8 9 -5 12 -88 13 -284 1 -275 1 -277 -21 -293 -13 -8 -18 -15 -12 -15 5 0
16 6 22 12 10 10 13 -6 11 -79 -1 -69 -5 -96 -17 -105 -8 -7 -18 -12 -21 -10
-3 1 -6 -2 -6 -7 0 -5 -40 -50 -89 -100 l-89 -91 -383 0 c-249 0 -384 4 -384
10 0 6 5 10 11 10 6 0 3 7 -5 16 -11 10 -13 21 -8 32 5 9 7 34 5 55 -2 25 1
37 9 38 7 0 4 4 -7 9 -19 9 -19 9 2 16 13 3 20 11 17 16 -3 5 -11 7 -18 5 -14
-6 -10 112 5 127 14 15 11 36 -4 30 -10 -4 -12 3 -9 26 2 16 8 33 13 36 15 9
10 22 -8 27 -13 3 -11 5 6 6 l23 1 -23 20 c-20 16 -21 19 -7 20 9 0 19 4 22 9
4 5 -4 7 -16 4 -14 -3 -19 -1 -12 4 6 4 13 18 16 31 5 16 2 22 -10 23 -13 0
-13 2 3 8 11 5 25 6 31 4 7 -2 15 1 19 6 3 6 11 9 16 5 5 -3 6 -11 2 -17 -4
-6 -6 -106 -4 -222 1 -115 2 -218 2 -227 0 -15 29 -17 326 -18 l325 -1 79 80
79 79 -2 1006 c-3 952 -2 1006 15 1006 9 0 17 5 17 11 0 6 -8 8 -18 5 -28 -9
-68 34 -63 67 0 4 -3 7 -9 7 -5 0 -10 -6 -10 -12 0 -7 -7 -4 -16 7 -8 11 -12
25 -10 31 2 6 -3 11 -12 10 -10 0 -16 5 -15 14 2 11 -10 16 -50 18 -120 8
-177 7 -178 -3 0 -6 -2 -6 -5 0 -4 11 -106 11 -124 0 -5 -3 -10 -2 -10 3 0 5
-21 7 -46 4 -34 -3 -45 -2 -40 7 4 6 2 11 -3 11 -6 0 -11 -4 -11 -9 0 -5 -20
-9 -45 -9 -25 -1 -51 -4 -57 -8 -7 -5 -9 0 -5 15 5 21 4 22 -12 7 -24 -22 -55
-21 -47 1 6 14 2 12 -17 -5 -13 -12 -32 -22 -43 -22 -18 -1 -18 -1 -2 -14 10
-7 15 -16 12 -19 -7 -7 -8 -237 0 -244 3 -3 2 -11 -1 -17 -4 -6 -6 -25 -4 -43
1 -19 -2 -33 -8 -33 -8 0 -7 -7 1 -20 12 -18 9 -24 -21 -50 -35 -31 -64 -31
-36 0 14 16 14 18 0 24 -12 4 -13 10 -6 23 5 10 7 33 5 52 -2 19 1 40 7 48 9
10 7 13 -7 13 -14 0 -15 3 -6 12 15 15 16 32 2 23 -5 -3 -10 -2 -10 4 0 5 4
12 8 15 5 3 7 44 5 91 -3 58 0 85 7 85 6 0 8 -4 5 -10 -3 -5 -1 -10 4 -10 16
0 13 20 -4 26 -8 4 -15 11 -15 16 0 6 7 8 15 5 8 -4 17 -2 20 3 6 10 -8 14
-35 10 -12 -1 -12 1 -3 10 6 7 9 19 6 26 -3 7 3 21 13 31 12 13 19 14 22 5 2
-7 8 -10 13 -7 5 3 34 8 65 10 31 2 59 6 62 9 11 11 22 6 22 -11z m485 -219
c22 -14 49 -38 60 -52 20 -26 20 -45 23 -958 l2 -931 -23 -34 c-12 -18 -38
-44 -56 -56 -33 -22 -42 -23 -238 -23 l-204 0 -24 26 -25 27 0 987 0 987 26
27 27 26 196 0 c195 0 197 0 236 -26z m-609 -293 c-3 -5 -6 -39 -7 -76 -1 -46
-6 -68 -15 -72 -8 -3 -11 -9 -8 -14 3 -5 9 -7 14 -4 4 3 7 -23 6 -57 -2 -35 1
-78 5 -97 7 -29 4 -38 -21 -62 -16 -16 -25 -29 -20 -29 5 0 12 5 15 10 3 6 13
10 22 10 11 0 13 -5 8 -17 -5 -10 -8 -26 -9 -35 0 -10 -6 -18 -13 -18 -7 0
-13 -4 -13 -10 0 -5 6 -7 14 -4 12 4 14 -24 12 -170 0 -97 3 -176 7 -176 5 0
5 -6 0 -12 -4 -7 -6 -23 -5 -35 2 -12 -2 -31 -8 -42 -9 -18 -8 -21 7 -21 13 0
14 -3 5 -12 -13 -13 -17 -42 -4 -34 6 3 7 -85 1 -104 -1 -3 0 -15 0 -27 1 -11
-3 -24 -8 -28 -6 -3 -11 -11 -11 -16 0 -6 3 -8 8 -5 4 2 7 -27 7 -66 -1 -48
-6 -73 -16 -80 -11 -8 -11 -9 4 -4 11 3 17 0 17 -9 0 -8 -6 -15 -12 -15 -9 0
-8 -3 2 -10 12 -8 12 -11 -3 -28 -18 -19 -47 -26 -47 -10 0 5 -4 6 -10 3 -5
-3 -3 9 4 27 7 18 11 39 9 46 -3 6 0 12 6 12 6 0 8 7 4 16 -5 13 -7 13 -14 2
-5 -8 -8 -1 -6 19 1 18 9 35 17 39 12 5 10 8 -8 15 -19 7 -21 12 -12 29 8 14
8 26 0 40 -6 11 -7 20 -3 20 4 0 13 11 19 24 9 20 9 23 -3 19 -24 -9 -11 39
17 64 14 12 20 23 13 23 -6 0 -15 -4 -18 -10 -3 -5 -13 -10 -22 -10 -14 0 -14
3 2 20 10 11 13 20 7 20 -7 0 -12 11 -12 25 0 14 6 25 13 25 8 0 8 3 2 8 -15
10 -17 60 -3 68 8 5 5 10 -8 15 -18 7 -18 8 3 15 13 3 20 11 17 16 -3 5 -12 7
-20 4 -14 -5 -19 5 -8 17 4 3 7 29 8 56 0 27 4 53 9 57 13 13 7 24 -10 17 -13
-5 -15 -2 -10 11 4 10 7 29 7 43 0 17 4 23 13 20 8 -3 20 -1 28 4 12 8 12 10
-1 8 -30 -3 -50 1 -50 11 0 6 8 10 18 10 15 1 15 2 -2 15 -17 13 -18 15 -3 15
19 0 23 16 6 22 -9 3 -9 9 -1 24 13 24 4 82 -10 62 -10 -14 -4 24 9 58 5 13 3
15 -8 10 -8 -4 -5 1 7 11 24 21 21 45 -4 36 -15 -6 -15 -5 -3 10 8 10 11 20 8
24 -4 3 1 11 10 18 19 14 8 39 -13 31 -11 -4 -12 -2 -4 14 13 24 13 43 0 35
-6 -4 -7 2 -1 17 5 13 7 35 4 49 -5 28 38 89 63 89 9 0 13 -4 10 -9z m932
-1793 c-12 -18 -68 -78 -125 -134 l-102 -100 -395 1 c-217 0 -398 4 -402 8 -4
4 171 7 390 7 l396 0 122 125 c118 123 162 157 116 93z m-1652 -226 c-12 -12
-223 -14 -231 -3 -4 8 28 11 104 11 75 0 112 4 117 12 6 9 9 9 12 -1 2 -7 1
-15 -2 -19z"/>
<path d="M1507 3233 c-4 -3 -7 -11 -7 -17 0 -6 5 -5 12 2 6 6 9 14 7 17 -3 3
-9 2 -12 -2z"/>
<path d="M1820 3219 c0 -5 5 -7 10 -4 6 3 10 8 10 11 0 2 -4 4 -10 4 -5 0 -10
-5 -10 -11z"/>
<path d="M1980 3074 c0 -8 5 -12 10 -9 6 4 8 11 5 16 -9 14 -15 11 -15 -7z"/>
<path d="M1146 3004 c-5 -14 -4 -15 9 -4 17 14 19 20 6 20 -5 0 -12 -7 -15
-16z"/>
<path d="M1140 2770 c0 -5 5 -10 10 -10 6 0 10 5 10 10 0 6 -4 10 -10 10 -5 0
-10 -4 -10 -10z"/>
<path d="M2050 2769 c0 -5 5 -7 10 -4 6 3 10 8 10 11 0 2 -4 4 -10 4 -5 0 -10
-5 -10 -11z"/>
<path d="M2045 2679 c-4 -6 -5 -12 -2 -15 2 -3 7 2 10 11 7 17 1 20 -8 4z"/>
<path d="M2080 2666 c0 -8 -6 -17 -12 -19 -7 -3 -4 -6 7 -6 14 -1 21 5 21 19
0 11 -4 20 -8 20 -4 0 -8 -6 -8 -14z"/>
<path d="M2090 2609 c0 -5 5 -7 10 -4 6 3 10 8 10 11 0 2 -4 4 -10 4 -5 0 -10
-5 -10 -11z"/>
<path d="M2035 2510 c-3 -5 -1 -10 4 -10 6 0 11 5 11 10 0 6 -2 10 -4 10 -3 0
-8 -4 -11 -10z"/>
<path d="M2080 2510 c-9 -6 -10 -10 -3 -10 6 0 15 5 18 10 8 12 4 12 -15 0z"/>
<path d="M2047 2463 c-4 -3 -7 -11 -7 -17 0 -6 5 -5 12 2 6 6 9 14 7 17 -3 3
-9 2 -12 -2z"/>
<path d="M2077 2163 c-4 -3 -7 -11 -7 -17 0 -6 5 -5 12 2 6 6 9 14 7 17 -3 3
-9 2 -12 -2z"/>
<path d="M2048 2053 c6 -2 18 -2 25 0 6 3 1 5 -13 5 -14 0 -19 -2 -12 -5z"/>
<path d="M2066 1984 c-9 -24 -2 -26 12 -4 7 11 8 20 3 20 -5 0 -12 -7 -15 -16z"/>
<path d="M2086 1934 c-17 -12 -17 -14 -4 -14 9 0 20 5 23 11 11 17 2 18 -19 3z"/>
<path d="M2040 1929 c0 -5 5 -7 10 -4 6 3 10 8 10 11 0 2 -4 4 -10 4 -5 0 -10
-5 -10 -11z"/>
<path d="M2070 1885 c-8 -9 -8 -15 -2 -15 12 0 26 19 19 26 -2 2 -10 -2 -17
-11z"/>
<path d="M2050 1849 c0 -5 5 -7 10 -4 6 3 10 8 10 11 0 2 -4 4 -10 4 -5 0 -10
-5 -10 -11z"/>
<path d="M2045 1779 c-11 -17 1 -21 15 -4 8 9 8 15 2 15 -6 0 -14 -5 -17 -11z"/>
<path d="M2085 1730 c-4 -6 -11 -7 -17 -4 -7 4 -8 2 -4 -4 10 -16 23 -15 30 3
6 17 0 20 -9 5z"/>
<path d="M2045 1689 c-4 -6 -5 -12 -2 -15 2 -3 7 2 10 11 7 17 1 20 -8 4z"/>
<path d="M2040 1520 c0 -5 5 -10 11 -10 5 0 7 5 4 10 -3 6 -8 10 -11 10 -2 0
-4 -4 -4 -10z"/>
<path d="M2040 1328 c0 -4 4 -8 9 -8 6 0 12 4 15 8 3 5 -1 9 -9 9 -8 0 -15 -4
-15 -9z"/>
<path d="M1173 1255 c0 -8 4 -12 9 -9 4 3 8 9 8 15 0 5 -4 9 -8 9 -5 0 -9 -7
-9 -15z"/>
<path d="M2070 1170 c0 -5 5 -10 10 -10 6 0 10 5 10 10 0 6 -4 10 -10 10 -5 0
-10 -4 -10 -10z"/>
<path d="M1146 1137 c3 -10 9 -15 12 -12 3 3 0 11 -7 18 -10 9 -11 8 -5 -6z"/>
<path d="M1152 1030 c0 -14 2 -19 5 -12 2 6 2 18 0 25 -3 6 -5 1 -5 -13z"/>
<path d="M2065 1000 c-3 -5 -2 -10 4 -10 5 0 13 5 16 10 3 6 2 10 -4 10 -5 0
-13 -4 -16 -10z"/>
<path d="M2025 909 c-4 -6 -5 -12 -2 -15 2 -3 7 2 10 11 7 17 1 20 -8 4z"/>
<path d="M1945 844 c-11 -17 -12 -25 -4 -22 6 2 16 14 20 26 11 29 5 28 -16
-4z"/>
<path d="M1180 809 c0 -5 5 -7 10 -4 6 3 10 8 10 11 0 2 -4 4 -10 4 -5 0 -10
-5 -10 -11z"/>
<path d="M1146 801 c-4 -7 -5 -15 -2 -18 9 -9 19 4 14 18 -4 11 -6 11 -12 0z"/>
<path d="M1350 799 c0 -5 5 -7 10 -4 6 3 10 8 10 11 0 2 -4 4 -10 4 -5 0 -10
-5 -10 -11z"/>
<path d="M1713 802 c-14 -9 -6 -52 9 -52 5 0 4 8 -2 19 -7 14 -6 21 3 24 6 2
10 7 7 10 -3 3 -11 3 -17 -1z"/>
<path d="M1635 790 c-3 -5 -1 -10 4 -10 6 0 11 5 11 10 0 6 -2 10 -4 10 -3 0
-8 -4 -11 -10z"/>
<path d="M1230 768 c-12 -22 -12 -22 6 -6 10 10 15 20 12 24 -4 3 -12 -5 -18
-18z"/>
<path d="M1386 765 c-16 -12 -17 -15 -4 -15 9 0 18 7 22 15 7 18 6 18 -18 0z"/>
<path d="M1180 760 c0 -5 5 -10 11 -10 5 0 7 5 4 10 -3 6 -8 10 -11 10 -2 0
-4 -4 -4 -10z"/>
<path d="M1168 2673 c7 -3 16 -2 19 1 4 3 -2 6 -13 5 -11 0 -14 -3 -6 -6z"/>
<path d="M1145 2120 c-3 -5 -2 -10 4 -10 5 0 13 5 16 10 3 6 2 10 -4 10 -5 0
-13 -4 -16 -10z"/>
<path d="M1150 2030 c0 -5 5 -10 11 -10 5 0 7 5 4 10 -3 6 -8 10 -11 10 -2 0
-4 -4 -4 -10z"/>
<path d="M1150 1869 c0 -5 5 -7 10 -4 6 3 10 8 10 11 0 2 -4 4 -10 4 -5 0 -10
-5 -10 -11z"/>
<path d="M1146 1785 c-3 -8 -1 -15 4 -15 6 0 10 7 10 15 0 8 -2 15 -4 15 -2 0
-6 -7 -10 -15z"/>
<path d="M1165 1689 c-11 -17 1 -21 15 -4 8 9 8 15 2 15 -6 0 -14 -5 -17 -11z"/>
<path d="M1151 1374 c0 -11 3 -14 6 -6 3 7 2 16 -1 19 -3 4 -6 -2 -5 -13z"/>
<path d="M2347 3733 c-4 -3 -7 -11 -7 -17 0 -6 5 -5 12 2 6 6 9 14 7 17 -3 3
-9 2 -12 -2z"/>
<path d="M2540 3550 c-9 -6 -10 -10 -3 -10 6 0 15 5 18 10 8 12 4 12 -15 0z"/>
<path d="M2570 3509 c0 -5 5 -7 10 -4 6 3 10 8 10 11 0 2 -4 4 -10 4 -5 0 -10
-5 -10 -11z"/>
<path d="M2545 3500 c-3 -5 -1 -10 4 -10 6 0 11 5 11 10 0 6 -2 10 -4 10 -3 0
-8 -4 -11 -10z"/>
<path d="M195 3470 c-3 -5 -1 -10 4 -10 6 0 11 5 11 10 0 6 -2 10 -4 10 -3 0
-8 -4 -11 -10z"/>
<path d="M160 3300 c-8 -5 -10 -10 -5 -10 6 0 17 5 25 10 8 5 11 10 5 10 -5 0
-17 -5 -25 -10z"/>
<path d="M2760 3285 c-7 -9 -8 -15 -2 -15 5 0 12 7 16 15 3 8 4 15 2 15 -2 0
-9 -7 -16 -15z"/>
<path d="M416 3143 c-6 -14 -5 -15 5 -6 7 7 10 15 7 18 -3 3 -9 -2 -12 -12z"/>
<path d="M410 3030 c-9 -6 -10 -10 -3 -10 6 0 15 5 18 10 8 12 4 12 -15 0z"/>
<path d="M390 2989 c0 -5 5 -7 10 -4 6 3 10 8 10 11 0 2 -4 4 -10 4 -5 0 -10
-5 -10 -11z"/>
<path d="M2798 2983 c7 -3 16 -2 19 1 4 3 -2 6 -13 5 -11 0 -14 -3 -6 -6z"/>
<path d="M2810 2915 c0 -8 2 -15 4 -15 2 0 6 7 10 15 3 8 1 15 -4 15 -6 0 -10
-7 -10 -15z"/>
<path d="M2811 2864 c0 -11 3 -14 6 -6 3 7 2 16 -1 19 -3 4 -6 -2 -5 -13z"/>
<path d="M2805 2780 c-3 -5 -1 -10 4 -10 6 0 11 5 11 10 0 6 -2 10 -4 10 -3 0
-8 -4 -11 -10z"/>
<path d="M410 2760 c0 -5 5 -10 11 -10 5 0 7 5 4 10 -3 6 -8 10 -11 10 -2 0
-4 -4 -4 -10z"/>
<path d="M2815 2750 c-3 -6 1 -7 9 -4 18 7 21 14 7 14 -6 0 -13 -4 -16 -10z"/>
<path d="M395 2721 c-3 -5 -1 -12 5 -16 5 -3 10 1 10 9 0 18 -6 21 -15 7z"/>
<path d="M420 2709 c0 -5 5 -7 10 -4 6 3 10 8 10 11 0 2 -4 4 -10 4 -5 0 -10
-5 -10 -11z"/>
<path d="M2820 2689 c0 -5 5 -7 10 -4 6 3 10 8 10 11 0 2 -4 4 -10 4 -5 0 -10
-5 -10 -11z"/>
<path d="M403 2673 c-7 -3 -13 -11 -13 -20 0 -12 2 -12 16 2 18 17 16 25 -3
18z"/>
<path d="M410 2549 c0 -5 5 -7 10 -4 6 3 10 8 10 11 0 2 -4 4 -10 4 -5 0 -10
-5 -10 -11z"/>
<path d="M402 2468 c-5 -7 -13 -24 -16 -38 -7 -24 -6 -24 9 3 9 15 20 27 25
27 6 0 10 5 10 10 0 14 -16 13 -28 -2z"/>
<path d="M375 2370 c-3 -5 -1 -10 4 -10 6 0 11 5 11 10 0 6 -2 10 -4 10 -3 0
-8 -4 -11 -10z"/>
<path d="M2796 2143 c-6 -14 -5 -15 5 -6 7 7 10 15 7 18 -3 3 -9 -2 -12 -12z"/>
<path d="M410 2040 c-9 -6 -10 -10 -3 -10 6 0 15 5 18 10 8 12 4 12 -15 0z"/>
<path d="M2812 1925 c-6 -14 -8 -25 -3 -25 8 0 23 41 17 47 -1 2 -8 -8 -14
-22z"/>
<path d="M420 1924 c0 -8 5 -12 10 -9 6 4 8 11 5 16 -9 14 -15 11 -15 -7z"/>
<path d="M2810 1880 c0 -5 5 -10 11 -10 5 0 7 5 4 10 -3 6 -8 10 -11 10 -2 0
-4 -4 -4 -10z"/>
<path d="M2820 1759 c0 -5 5 -7 10 -4 6 3 10 8 10 11 0 2 -4 4 -10 4 -5 0 -10
-5 -10 -11z"/>
<path d="M390 1725 c0 -7 30 -13 34 -7 3 4 -4 9 -15 9 -10 1 -19 0 -19 -2z"/>
<path d="M390 1664 c0 -8 5 -12 10 -9 6 3 10 10 10 16 0 5 -4 9 -10 9 -5 0
-10 -7 -10 -16z"/>
<path d="M415 1570 c-3 -5 -1 -10 4 -10 6 0 11 5 11 10 0 6 -2 10 -4 10 -3 0
-8 -4 -11 -10z"/>
<path d="M402 1478 c-19 -19 -14 -29 8 -16 20 13 27 28 12 28 -4 0 -13 -5 -20
-12z"/>
<path d="M380 1430 c0 -5 5 -10 10 -10 6 0 10 5 10 10 0 6 -4 10 -10 10 -5 0
-10 -4 -10 -10z"/>
<path d="M376 1385 c-3 -9 0 -15 9 -15 9 0 12 6 9 15 -4 8 -7 15 -9 15 -2 0
-5 -7 -9 -15z"/>
<path d="M378 1103 c7 -3 16 -2 19 1 4 3 -2 6 -13 5 -11 0 -14 -3 -6 -6z"/>
<path d="M2812 940 c-7 -11 -9 -20 -4 -20 4 0 13 9 20 20 7 11 9 20 4 20 -4 0
-13 -9 -20 -20z"/>
<path d="M420 929 c0 -5 5 -7 10 -4 6 3 10 8 10 11 0 2 -4 4 -10 4 -5 0 -10
-5 -10 -11z"/>
<path d="M290 800 c0 -5 5 -10 10 -10 6 0 10 5 10 10 0 6 -4 10 -10 10 -5 0
-10 -4 -10 -10z"/>
<path d="M2805 800 c-3 -5 -1 -10 4 -10 6 0 11 5 11 10 0 6 -2 10 -4 10 -3 0
-8 -4 -11 -10z"/>
<path d="M346 785 c-3 -8 -1 -15 4 -15 6 0 10 7 10 15 0 8 -2 15 -4 15 -2 0
-6 -7 -10 -15z"/>
<path d="M2824 774 c-18 -14 -18 -15 4 -4 12 6 22 13 22 15 0 8 -5 6 -26 -11z"/>
<path d="M180 730 c-8 -5 -10 -10 -5 -10 6 0 17 5 25 10 8 5 11 10 5 10 -5 0
-17 -5 -25 -10z"/>
<path d="M165 690 c-3 -5 -1 -10 4 -10 6 0 11 5 11 10 0 6 -2 10 -4 10 -3 0
-8 -4 -11 -10z"/>
<path d="M2760 690 c-13 -8 -12 -10 3 -10 9 0 17 5 17 10 0 12 -1 12 -20 0z"/>
<path d="M2750 659 c0 -5 5 -7 10 -4 6 3 10 8 10 11 0 2 -4 4 -10 4 -5 0 -10
-5 -10 -11z"/>
<path d="M175 580 c3 -5 8 -10 11 -10 2 0 4 5 4 10 0 6 -5 10 -11 10 -5 0 -7
-4 -4 -10z"/>
<path d="M2595 500 c3 -5 8 -10 11 -10 2 0 4 5 4 10 0 6 -5 10 -11 10 -5 0 -7
-4 -4 -10z"/>
<path d="M190 465 c-7 -9 -10 -18 -7 -21 3 -3 10 4 17 15 13 25 8 27 -10 6z"/>
<path d="M170 419 c0 -5 5 -7 10 -4 6 3 10 8 10 11 0 2 -4 4 -10 4 -5 0 -10
-5 -10 -11z"/>
<path d="M2490 395 c-7 -9 -11 -18 -8 -20 3 -3 11 1 18 10 7 9 11 18 8 20 -3
3 -11 -1 -18 -10z"/>
<path d="M2440 370 c0 -5 5 -10 11 -10 5 0 7 5 4 10 -3 6 -8 10 -11 10 -2 0
-4 -4 -4 -10z"/>
<path d="M188 353 c7 -3 16 -2 19 1 4 3 -2 6 -13 5 -11 0 -14 -3 -6 -6z"/>
<path d="M155 330 c-8 -13 5 -13 25 0 13 8 13 10 -2 10 -9 0 -20 -4 -23 -10z"/>
<path d="M767 203 c-4 -3 -7 -11 -7 -17 0 -6 5 -5 12 2 6 6 9 14 7 17 -3 3 -9
2 -12 -2z"/>
<path d="M815 200 c-3 -5 -2 -10 4 -10 5 0 13 5 16 10 3 6 2 10 -4 10 -5 0
-13 -4 -16 -10z"/>
<path d="M1823 203 c-7 -3 -13 -11 -13 -20 0 -12 2 -12 16 2 18 17 16 25 -3
18z"/>
<path d="M2248 193 c7 -3 16 -2 19 1 4 3 -2 6 -13 5 -11 0 -14 -3 -6 -6z"/>
</g>
</svg>
